#!OML:ASF H:\ManfredETheater\Project 1\Capture day 1\Session 1\subject.ASF
:FULLY-SPECIFIED
:DEGREES
370
root 1.34916 16.5596 -4.21121 -152.75 -1.1555 172.822
lowerback 18.1289 -1.54199 -3.92255
upperback 1.18158 -2.94465 1.55254
thorax -8.61309 -1.33271 4.67061
lowerneck -19.8129 -2.30495 -5.48395
upperneck -4.10572 -0.765787 0.72625
head 2.11519 0.180824 1.16643
rclavicle -1.98785e-014 -2.5842e-014
rhumerus -71.0039 -3.33168 -79.1744
rradius 88.9956
rwrist -16.0777
rhand -31.1425 15.8286
rfingers 7.12502
rthumb -4.42073 -14.1053
lclavicle -1.98785e-014 -2.5842e-014
lhumerus -14.8653 -13.3701 78.4071
lradius 119.257
lwrist 17.0368
lhand -23.6965 -2.22922
lfingers 7.12502
lthumb 2.77048 27.7325
rfemur -64.8221 -11.9517 25.0447
rtibia 71.5975
rfoot -19.1232 -3.26433
rtoes -9.14496
lfemur -15.6403 -7.17961 -25.9458
ltibia 63.883
lfoot 22.8082 -8.00255
ltoes 20.4954
371
root 1.35013 16.5704 -4.70984 -153.095 -1.29857 173.66
lowerback 18.306 -1.38704 -3.27447
upperback 1.20792 -2.59181 1.88768
thorax -8.73066 -1.18214 4.58992
lowerneck -19.3966 -2.20815 -5.3064
upperneck -4.24877 -0.708905 0.497839
head 1.98539 0.196815 1.05987
rclavicle -3.18055e-015 1.66979e-014
rhumerus -66.7564 -2.60478 -80.9353
rradius 89.0175
rwrist -16.021
rhand -31.0164 15.7197
rfingers 7.12502
rthumb -4.299 -14.2167
lclavicle -3.18055e-015 1.66979e-014
lhumerus -18.365 -13.2368 81.749
lradius 114.809
lwrist 16.9729
lhand -24.1095 -2.40617
lfingers 7.12502
lthumb 2.37159 27.5604
rfemur -61.808 -12.2304 25.941
rtibia 70.779
rfoot -20.4073 -3.51473
rtoes -9.13832
lfemur -18.4467 -6.12257 -24.8349
ltibia 69.1773
lfoot 21.0882 -7.21182
ltoes 21.7032
372
root 1.35115 16.5671 -5.20399 -153.449 -1.38379 174.655
lowerback 18.5276 -1.21537 -2.53427
upperback 1.19375 -2.19659 2.23697
thorax -8.92062 -1.01363 4.46315
lowerneck -19.0169 -2.09145 -5.06858
upperneck -4.29433 -0.642264 0.219391
head 1.89523 0.209603 0.928361
rclavicle 1.66979e-014 1.27222e-014
rhumerus -62.36 -1.45806 -82.6886
rradius 89.1484
rwrist -16.1958
rhand -30.9015 15.5809
rfingers 7.12502
rthumb -4.18803 -14.3577
lclavicle 1.66979e-014 1.27222e-014
lhumerus -21.6005 -12.316 84.7081
lradius 109.835
lwrist 16.8765
lhand -24.7347 -2.68583
lfingers 7.12502
lthumb 1.76779 27.2866
rfemur -58.7067 -12.2649 26.8182
rtibia 69.8611
rfoot -21.8762 -3.83659
rtoes -9.6756
lfemur -21.465 -4.96432 -23.5776
ltibia 74.4526
lfoot 19.3396 -6.30184
ltoes 22.981
373
root 1.35202 16.5545 -5.69499 -153.784 -1.37433 175.759
lowerback 18.7733 -1.0272 -1.72878
upperback 1.1323 -1.76324 2.57212
thorax -9.17666 -0.829801 4.27376
lowerneck -18.6824 -1.95055 -4.76764
upperneck -4.23917 -0.558294 -0.117349
head 1.84706 0.222973 0.769485
rclavicle 6.75868e-015 -2.8625e-014
rhumerus -57.878 0.0584795 -84.3542
rradius 89.4556
rwrist -16.3964
rhand -30.7906 15.4457
rfingers 7.12502
rthumb -4.08091 -14.4949
lclavicle 6.75868e-015 -2.8625e-014
lhumerus -24.5567 -10.7814 87.104
lradius 104.422
lwrist 16.7192
lhand -25.5896 -3.05619
lfingers 7.12502
lthumb 0.942123 26.9215
rfemur -55.5653 -12.0339 27.6352
rtibia 68.8618
rfoot -23.4202 -4.22172
rtoes -10.7434
lfemur -24.6874 -3.69903 -22.2413
ltibia 79.6172
lfoot 17.5342 -5.29534
ltoes 24.3448
